Coordinates
version=1
nRows=22
nColumns=24
inDegrees=yes

Units are S.I. units (second, meters, Newtons, ...)
Angles are in degrees.

endheader
time	pelvis_tilt	pelvis_list	pelvis_rotation	pelvis_tx	pelvis_ty	pelvis_tz	hip_flexion_r	hip_adduction_r	hip_rotation_r	knee_angle_r	ankle_angle_r	subtalar_angle_r	mtp_angle_r	hip_flexion_l	hip_adduction_l	hip_rotation_l	knee_angle_l	ankle_angle_l	subtalar_angle_l	mtp_angle_l	lumbar_extension	lumbar_bending	lumbar_rotation
      4.12500000	     11.97143555	     -2.08261446	     -4.25897858	     -0.67762100	      0.72205314	     -0.22130940	    -32.14758457	     -2.04512574	     -8.36241221	    -16.75970168	     28.34267635	     23.25357979	      0.00000000	     18.26690741	     -2.15423079	     -2.32796356	    -12.87685856	     17.77613137	      3.13626168	      0.00000000	    -36.74418894	      1.57329257	      9.80199383
      4.13000000	     12.07866072	     -1.36253285	     -4.38008631	     -0.66888533	      0.72188906	     -0.22212558	    -32.10200061	     -2.97846570	     -8.54484909	    -18.35013977	     27.29863093	     22.88042056	      0.00000000	     17.99454462	     -1.27717759	     -2.12801884	    -13.38883401	     16.98177583	      2.18158774	      0.00000000	    -36.67732103	      0.79160684	      9.56912921
      4.13500000	     12.16437308	     -0.59104224	     -4.52360936	     -0.66015611	      0.72179554	     -0.22294940	    -31.91895492	     -3.96839124	     -8.68567596	    -20.12993028	     26.19764519	     22.33093428	      0.00000000	     17.76761257	     -0.35382514	     -2.03494255	    -14.04217004	     16.17617072	      1.30468092	      0.00000000	    -36.58337761	     -0.04840422	      9.35372220
      4.14000000	     12.24761892	      0.22036074	     -4.61563503	     -0.65141549	      0.72180131	     -0.22379039	    -31.65945409	     -4.95024450	     -8.78740496	    -22.02130452	     24.90148547	     21.60789353	      0.00000000	     17.55251404	      0.62140584	     -1.95448058	    -14.77641355	     15.35720963	      0.49442575	      0.00000000	    -36.48436825	     -0.90350797	      9.02491072
      4.14500000	     12.35768392	      1.03220899	     -4.68706142	     -0.64270654	      0.72193274	     -0.22469146	    -31.34432321	     -5.92219610	     -8.89106161	    -24.02151556	     23.41311649	     20.72680511	      0.00000000	     17.31808498	      1.62197832	     -1.79680046	    -15.59462982	     14.55174432	     -0.44775595	      0.00000000	    -36.42725172	     -1.75116742	      8.76683172
      4.15000000	     12.45301947	      1.86046724	     -4.72867440	     -0.63402255	      0.72216084	     -0.22559051	    -30.92621724	     -6.87030670	     -8.91197948	    -26.13088918	     21.75427046	     19.64447329	      0.00000000	     17.09149450	      2.63991575	     -1.67393169	    -16.43537416	     13.79658190	     -1.27546031	      0.00000000	    -36.36025769	     -2.59630831	      8.41824184
      4.15500000	     12.54950221	      2.70676706	     -4.74553693	     -0.62540242	      0.72247325	     -0.22646964	    -30.41656916	     -7.80445360	     -8.91426530	    -28.35401569	     20.04646773	     18.30697320	      0.00000000	     16.87192175	      3.66755773	     -1.63640262	    -17.32000487	     13.11929070	     -1.90839958	      0.00000000	    -36.31115491	     -3.45693819	      8.07177161
      4.16000000	     12.63192185	      3.53849189	     -4.74672490	     -0.61684093	      0.72288987	     -0.22733299	    -29.80400640	     -8.68951686	     -8.80934831	    -30.65484484	     18.17152261	     16.77413915	      0.00000000	     16.63836369	      4.68158177	     -1.58475672	    -18.16739672	     12.53073812	     -2.52430945	      0.00000000	    -36.26039924	     -4.29717768	      7.70019619
      4.16500000	     12.70715915	      4.37505980	     -4.73097091	     -0.60834631	      0.72338785	     -0.22817873	    -29.09969256	     -9.55233020	     -8.67128546	    -33.02657336	     16.26994672	     15.05509943	      0.00000000	     16.39284227	      5.69270402	     -1.58672777	    -18.98905214	     12.06105758	     -2.98531139	      0.00000000	    -36.21867043	     -5.13501485	      7.31306382
      4.17000000	     12.76895133	      5.19360064	     -4.69796873	     -0.59993411	      0.72396897	     -0.22899879	    -28.30036953	    -10.36738095	     -8.47858938	    -35.44798473	     14.34036832	     13.18574022	      0.00000000	     16.13037306	      6.67897009	     -1.61123442	    -19.75796094	     11.71610815	     -3.33184018	      0.00000000	    -36.18105422	     -5.95061183	      6.92175022
      4.17500000	     12.83410377	      6.04490459	     -4.63464046	     -0.59157726	      0.72462202	     -0.22981051	    -27.44137952	    -11.20225024	     -8.35149680	    -37.90951656	     12.50811294	     11.28726528	      0.00000000	     15.81990700	      7.69096490	     -1.70812527	    -20.43240988	     11.48436793	     -3.49282569	      0.00000000	    -36.16126010	     -6.78203900	      6.45178558
      4.18000000	     12.85495516	      6.78223645	     -4.60186968	     -0.58335031	      0.72535036	     -0.23055883	    -26.44396601	    -11.87938488	     -7.95768398	    -40.36379263	     10.61240125	      9.11874126	      0.00000000	     15.52659321	      8.57965763	     -1.73887990	    -21.07765067	     11.43365816	     -3.69461014	      0.00000000	    -36.11376070	     -7.52205841	      6.13527863
      4.18500000	     12.88007284	      7.55359043	     -4.54302089	     -0.57516091	      0.72614003	     -0.23129239	    -25.40610110	    -12.58064211	     -7.63178921	    -42.81725747	      8.92553157	      7.02653524	      0.00000000	     15.16588760	      9.49534242	     -1.84352175	    -21.59166287	     11.51493511	     -3.72493769	      0.00000000	    -36.07846891	     -8.27552822	      5.69375386
      4.19000000	     12.89067086	      8.28728323	     -4.47459432	     -0.56706308	      0.72700003	     -0.23200820	    -24.29805288	    -13.22712966	     -7.27740242	    -45.24429004	      7.37291637	      4.92746029	      0.00000000	     14.76725901	     10.36875157	     -1.94241839	    -22.00615006	     11.69482519	     -3.65436138	      0.00000000	    -36.04376352	     -8.98882583	      5.29147742
      4.19500000	     12.89590106	      8.99584174	     -4.39885220	     -0.55902149	      0.72792437	     -0.23269890	    -23.13896832	    -13.83050444	     -6.88720322	    -47.63466737	      6.01710310	      2.88449755	      0.00000000	     14.31176323	     11.21253534	     -2.04654495	    -22.30759661	     11.98673593	     -3.50833939	      0.00000000	    -36.00663520	     -9.66861655	      4.86211470
      4.20000000	     12.89248455	      9.66679365	     -4.31998766	     -0.55104423	      0.72891639	     -0.23336812	    -21.93131265	    -14.38407879	     -6.47073345	    -49.96450102	      4.87530781	      0.91921379	      0.00000000	     13.80180462	     12.01544942	     -2.14261922	    -22.49601229	     12.36976642	     -3.29530601	      0.00000000	    -35.96894617	    -10.30578131	      4.43155385
      4.20500000	     12.88531419	     10.29989900	     -4.23690048	     -0.54312079	      0.72996960	     -0.23402156	    -20.68479577	    -14.88912587	     -6.03436775	    -52.22828989	      3.96606807	     -0.94245788	      0.00000000	     13.23103319	     12.77829615	     -2.22366106	    -22.57117396	     12.82735813	     -3.02870191	      0.00000000	    -35.93063128	    -10.89821527	      3.99989359
      4.21000000	     12.87786555	     10.89262803	     -4.15270654	     -0.53524290	      0.73108859	     -0.23465834	    -19.40894346	    -15.34501124	     -5.58219446	    -54.40974231	      3.30153889	     -2.67795926	      0.00000000	     12.59514003	     13.50072844	     -2.28223464	    -22.53469185	     13.33566729	     -2.72490198	      0.00000000	    -35.89237914	    -11.44450699	      3.56652327
      4.21500000	     12.87981050	     11.45700055	     -4.06301996	     -0.52739227	      0.73228275	     -0.23527971	    -18.12460013	    -15.76281138	     -5.12322078	    -56.49479771	      2.88019037	     -4.24973196	      0.00000000	     11.87632378	     14.19556662	     -2.31312118	    -22.36944225	     13.84390001	     -2.40591297	      0.00000000	    -35.86327161	    -11.95087605	      3.08894935
      4.22000000	     12.86941443	     11.93973080	     -3.98776452	     -0.51960412	      0.73349795	     -0.23589184	    -16.78620746	    -16.09876384	     -4.63471648	    -58.49560483	      2.67968917	     -5.72726313	      0.00000000	     11.12797526	     14.80569957	     -2.30676154	    -22.14502941	     14.43494991	     -2.06111504	      0.00000000	    -35.81602220	    -12.38231914	      2.71878230
      4.22500000	     12.87150451	     12.40124230	     -3.90105188	     -0.51181845	      0.73478655	     -0.23648957	    -15.45761270	    -16.40305802	     -4.15543555	    -60.37459812	      2.70367974	     -7.00493910	      0.00000000	     10.29179738	     15.39501918	     -2.26637618	    -21.78898029	     14.97564571	     -1.72202203	      0.00000000	    -35.77706646	    -12.77658759	      2.26786811
      4.23000000	     12.88208911	     12.80778095	     -3.81650891	     -0.50405854	      0.73611191	     -0.23708741	    -14.12222444	    -16.65221874	     -3.68363372	    -62.13629174	      2.93617120	     -8.12331188	      0.00000000	      9.39951133	     15.93150772	     -2.17382705	    -21.36385271	     15.51607617	     -1.39837846	      0.00000000	    -35.74053307	    -13.10864672	      1.84734119
